<svg width="673" height="143" viewBox="0 0 673 143" fill="none" xmlns="http://www.w3.org/2000/svg">
<path d="M672.711 118.38L652.194 139.125C651.566 139.76 650.483 139.315 650.483 138.422V1.25116L672.707 23.475C672.895 23.6625 673 23.9169 673 24.1821V117.677C673 117.94 672.896 118.193 672.711 118.38Z" fill="white"/>
<path d="M491.115 139.855V46.7987C491.115 45.9298 492.147 45.4743 492.789 46.0599L513.556 65.0011C513.764 65.1906 513.882 65.4588 513.882 65.74V139.855C513.882 140.407 513.434 140.855 512.882 140.855H492.115C491.563 140.855 491.115 140.407 491.115 139.855Z" fill="white"/>
<path d="M491.115 3.48078V35.0803C491.115 35.3642 491.236 35.6348 491.447 35.8245L606.784 139.357C607.428 139.935 608.452 139.478 608.452 138.613V2.25098C608.452 1.69869 608.005 1.25098 607.452 1.25098H585.935C585.383 1.25098 584.935 1.69869 584.935 2.25098V82.5833C584.935 83.4466 583.915 83.9042 583.27 83.33L492.78 2.73403C492.136 2.15983 491.115 2.61746 491.115 3.48078Z" fill="white"/>
<path d="M210.199 118.689L167.023 139.706C166.069 140.17 166.399 141.605 167.46 141.605H302.726C303.278 141.605 303.726 141.157 303.726 140.605V119.588C303.726 119.036 303.278 118.588 302.726 118.588H210.637C210.485 118.588 210.335 118.622 210.199 118.689Z" fill="white"/>
<path d="M299.183 6.60672L255.61 29.1834C255.498 29.2416 255.398 29.3206 255.315 29.4162L165.646 132.824C164.93 133.65 165.869 134.861 166.847 134.374L211.475 112.174C211.596 112.114 211.703 112.03 211.79 111.928L300.404 8.14395C301.117 7.30895 300.158 6.1016 299.183 6.60672Z" fill="white"/>
<path d="M297.362 0.500488H163.371C162.819 0.500488 162.371 0.948203 162.371 1.50049V22.0172C162.371 22.5695 162.819 23.0172 163.371 23.0172H254.961C255.112 23.0172 255.261 22.9831 255.396 22.9174L297.798 2.40065C298.754 1.93796 298.424 0.500488 297.362 0.500488Z" fill="white"/>
<path d="M129.488 118.838H106.72C105.971 118.838 105.488 119.632 105.832 120.297L116.557 141.064C116.729 141.397 117.072 141.605 117.446 141.605H140.213C140.963 141.605 141.446 140.812 141.102 140.146L130.376 119.379C130.205 119.047 129.862 118.838 129.488 118.838Z" fill="white"/>
<path d="M455.73 118.838H432.962C432.213 118.838 431.73 119.632 432.074 120.297L442.8 141.064C442.971 141.397 443.314 141.605 443.688 141.605H466.456C467.205 141.605 467.688 140.812 467.344 140.146L456.618 119.379C456.447 119.047 456.104 118.838 455.73 118.838Z" fill="white"/>
<path d="M25.6538 142.356H1.61676C0.873688 142.356 0.390176 141.574 0.722021 140.909L70.1671 1.77452C70.5337 1.03998 71.5803 1.03573 71.9529 1.76725L118.098 92.3659C118.437 93.0312 117.953 93.8197 117.207 93.8197H92.1809C91.8048 93.8197 91.4606 93.6087 91.2899 93.2735L71.9483 55.2981C71.5766 54.5683 70.5331 54.5704 70.1644 55.3018L26.5467 141.806C26.3767 142.143 26.0314 142.356 25.6538 142.356Z" fill="white"/>
<path d="M351.896 142.356H327.859C327.116 142.356 326.632 141.574 326.964 140.909L396.409 1.77452C396.776 1.03998 397.823 1.03573 398.195 1.76725L444.34 92.3659C444.679 93.0312 444.196 93.8197 443.449 93.8197H418.423C418.047 93.8197 417.703 93.6087 417.532 93.2735L398.191 55.2981C397.819 54.5683 396.775 54.5704 396.407 55.3018L352.789 141.806C352.619 142.143 352.274 142.356 351.896 142.356Z" fill="white"/>
</svg>
