<svg width="105" height="18" viewBox="0 0 105 18" fill="none" xmlns="http://www.w3.org/2000/svg">
<path d="M8.304 17L11.304 12.872H15.336C15.816 12.872 16.312 12.872 16.824 12.872C17.352 12.872 17.808 12.888 18.192 12.92C17.968 12.632 17.704 12.272 17.4 11.84C17.112 11.392 16.832 10.976 16.56 10.592L13.68 6.344L6.144 17H0.264L10.56 2.48C10.896 2.016 11.32 1.6 11.832 1.232C12.344 0.864 12.992 0.68 13.776 0.68C14.528 0.68 15.152 0.855999 15.648 1.208C16.16 1.544 16.592 1.968 16.944 2.48L26.976 17H8.304ZM45.6184 17H30.4024C29.7784 17 29.2344 16.832 28.7704 16.496C28.3224 16.144 28.0984 15.64 28.0984 14.984C28.0984 14.616 28.1944 14.264 28.3864 13.928C28.5784 13.576 28.8424 13.264 29.1784 12.992L35.0344 8.384C35.7064 7.856 36.2824 7.408 36.7624 7.04C37.2424 6.656 37.6584 6.336 38.0104 6.08C38.3624 5.808 38.6504 5.592 38.8744 5.432C39.1144 5.272 39.3064 5.136 39.4504 5.024C39.2264 5.04 38.9624 5.056 38.6584 5.072C38.3704 5.088 38.0024 5.104 37.5544 5.12C37.1224 5.12 36.6104 5.12 36.0184 5.12C35.4264 5.12 34.7304 5.12 33.9304 5.12H27.4984L30.6664 0.943999H45.4744C46.0984 0.943999 46.6344 1.12 47.0824 1.472C47.5464 1.808 47.7784 2.304 47.7784 2.96C47.7784 3.328 47.6824 3.688 47.4904 4.04C47.2984 4.376 47.0344 4.672 46.6984 4.928L40.7704 9.632C40.1144 10.16 39.5464 10.608 39.0664 10.976C38.5864 11.344 38.1704 11.664 37.8184 11.936C37.4824 12.192 37.2024 12.4 36.9784 12.56C36.7544 12.72 36.5624 12.856 36.4024 12.968C36.5944 12.952 36.9144 12.944 37.3624 12.944C37.8264 12.928 38.3544 12.92 38.9464 12.92C39.5384 12.904 40.1704 12.896 40.8424 12.896C41.5144 12.88 42.1624 12.872 42.7864 12.872H48.6184L45.6184 17ZM57.1243 17L60.1243 12.872H64.1563C64.6363 12.872 65.1323 12.872 65.6443 12.872C66.1723 12.872 66.6283 12.888 67.0123 12.92C66.7883 12.632 66.5243 12.272 66.2203 11.84C65.9323 11.392 65.6523 10.976 65.3803 10.592L62.5003 6.344L54.9643 17H49.0843L59.3803 2.48C59.7163 2.016 60.1403 1.6 60.6523 1.232C61.1643 0.864 61.8123 0.68 62.5963 0.68C63.3483 0.68 63.9723 0.855999 64.4683 1.208C64.9803 1.544 65.4123 1.968 65.7643 2.48L75.7963 17H57.1243ZM93.8387 17.264C93.5187 17.264 93.1987 17.208 92.8787 17.096C92.5747 17 92.2307 16.768 91.8467 16.4L82.0067 7.568V17H77.4947V3.68C77.4947 3.152 77.5667 2.696 77.7107 2.312C77.8707 1.928 78.0707 1.616 78.3107 1.376C78.5667 1.136 78.8547 0.96 79.1747 0.847999C79.5107 0.736 79.8547 0.68 80.2067 0.68C80.5107 0.68 80.8147 0.736 81.1187 0.847999C81.4387 0.943999 81.7987 1.176 82.1987 1.544L92.0387 10.376V0.943999H96.5747V14.24C96.5747 14.768 96.4947 15.224 96.3347 15.608C96.1907 15.992 95.9907 16.312 95.7347 16.568C95.4947 16.808 95.2067 16.984 94.8707 17.096C94.5347 17.208 94.1907 17.264 93.8387 17.264ZM104.544 17H99.5762V0.943999H104.544V17Z" fill="white"/>
</svg>
