<svg width="189" height="14" viewBox="0 0 189 14" fill="none" xmlns="http://www.w3.org/2000/svg">
<path d="M16.092 0.957999L13.68 4.09H9.378V13H5.652V4.09H0L2.412 0.957999H16.092ZM31.204 9.904L28.81 13H17.218V0.957999H31.168L28.756 4.09H20.962V5.53H30.502L28.36 8.266H20.962V9.904H31.204ZM47.7938 9.904L45.3998 13H39.3518C38.3078 13 37.3418 12.844 36.4538 12.532C35.5658 12.22 34.7978 11.794 34.1498 11.254C33.5138 10.702 33.0098 10.054 32.6378 9.31C32.2778 8.554 32.0978 7.738 32.0978 6.862C32.0978 5.986 32.2778 5.188 32.6378 4.468C33.0098 3.736 33.5138 3.112 34.1498 2.596C34.7978 2.068 35.5658 1.666 36.4538 1.39C37.3418 1.102 38.3078 0.957999 39.3518 0.957999H47.7938L45.3998 4.09H39.3518C38.8478 4.09 38.3798 4.162 37.9478 4.306C37.5158 4.45 37.1438 4.654 36.8318 4.918C36.5198 5.17 36.2738 5.476 36.0938 5.836C35.9138 6.196 35.8238 6.592 35.8238 7.024C35.8238 7.456 35.9078 7.852 36.0758 8.212C36.2558 8.56 36.5018 8.86 36.8138 9.112C37.1378 9.364 37.5158 9.562 37.9478 9.706C38.3798 9.838 38.8478 9.904 39.3518 9.904H47.7938ZM63.7031 13H59.9951V8.356H52.8311V13H49.0871V0.957999H52.8311V5.224H59.9951V0.957999H63.7031V13ZM78.2013 13.198C77.9613 13.198 77.7213 13.156 77.4813 13.072C77.2533 13 76.9953 12.826 76.7073 12.55L69.3273 5.926V13H65.9433V3.01C65.9433 2.614 65.9973 2.272 66.1053 1.984C66.2253 1.696 66.3753 1.462 66.5553 1.282C66.7473 1.102 66.9633 0.97 67.2033 0.885999C67.4553 0.802 67.7133 0.76 67.9773 0.76C68.2053 0.76 68.4333 0.802 68.6613 0.885999C68.9013 0.957999 69.1713 1.132 69.4713 1.408L76.8513 8.032V0.957999H80.2533V10.93C80.2533 11.326 80.1933 11.668 80.0733 11.956C79.9653 12.244 79.8153 12.484 79.6233 12.676C79.4433 12.856 79.2273 12.988 78.9753 13.072C78.7233 13.156 78.4653 13.198 78.2013 13.198ZM90.8744 0.76C93.8024 0.76 95.9984 1.258 97.4624 2.254C98.9384 3.25 99.6764 4.822 99.6764 6.97C99.6764 9.13 98.9444 10.708 97.4804 11.704C96.0164 12.7 93.8144 13.198 90.8744 13.198C87.9224 13.198 85.7144 12.7 84.2504 11.704C82.7984 10.708 82.0724 9.13 82.0724 6.97C82.0724 4.822 82.8044 3.25 84.2684 2.254C85.7324 1.258 87.9344 0.76 90.8744 0.76ZM90.8744 10.066C91.8104 10.066 92.6024 10.03 93.2504 9.958C93.8984 9.874 94.4204 9.718 94.8164 9.49C95.2244 9.262 95.5184 8.95 95.6984 8.554C95.8784 8.146 95.9684 7.618 95.9684 6.97C95.9684 6.322 95.8784 5.8 95.6984 5.404C95.5184 4.996 95.2244 4.684 94.8164 4.468C94.4204 4.24 93.8984 4.09 93.2504 4.018C92.6024 3.934 91.8104 3.892 90.8744 3.892C89.9384 3.892 89.1464 3.934 88.4984 4.018C87.8504 4.09 87.3224 4.24 86.9144 4.468C86.5184 4.684 86.2304 4.996 86.0504 5.404C85.8704 5.8 85.7804 6.322 85.7804 6.97C85.7804 7.618 85.8704 8.146 86.0504 8.554C86.2304 8.95 86.5184 9.262 86.9144 9.49C87.3224 9.718 87.8504 9.874 88.4984 9.958C89.1464 10.03 89.9384 10.066 90.8744 10.066ZM114.608 9.904L112.196 13H101.558V0.957999H105.284V9.904H114.608ZM123.798 0.76C126.726 0.76 128.922 1.258 130.386 2.254C131.862 3.25 132.6 4.822 132.6 6.97C132.6 9.13 131.868 10.708 130.404 11.704C128.94 12.7 126.738 13.198 123.798 13.198C120.846 13.198 118.638 12.7 117.174 11.704C115.722 10.708 114.996 9.13 114.996 6.97C114.996 4.822 115.728 3.25 117.192 2.254C118.656 1.258 120.858 0.76 123.798 0.76ZM123.798 10.066C124.734 10.066 125.526 10.03 126.174 9.958C126.822 9.874 127.344 9.718 127.74 9.49C128.148 9.262 128.442 8.95 128.622 8.554C128.802 8.146 128.892 7.618 128.892 6.97C128.892 6.322 128.802 5.8 128.622 5.404C128.442 4.996 128.148 4.684 127.74 4.468C127.344 4.24 126.822 4.09 126.174 4.018C125.526 3.934 124.734 3.892 123.798 3.892C122.862 3.892 122.07 3.934 121.422 4.018C120.774 4.09 120.246 4.24 119.838 4.468C119.442 4.684 119.154 4.996 118.974 5.404C118.794 5.8 118.704 6.322 118.704 6.97C118.704 7.618 118.794 8.146 118.974 8.554C119.154 8.95 119.442 9.262 119.838 9.49C120.246 9.718 120.774 9.874 121.422 9.958C122.07 10.03 122.862 10.066 123.798 10.066ZM141.916 5.476H149.62V13H141.358C140.314 13 139.348 12.844 138.46 12.532C137.572 12.22 136.804 11.794 136.156 11.254C135.52 10.702 135.016 10.054 134.644 9.31C134.284 8.554 134.104 7.738 134.104 6.862C134.104 5.986 134.284 5.188 134.644 4.468C135.016 3.736 135.52 3.112 136.156 2.596C136.804 2.068 137.572 1.666 138.46 1.39C139.348 1.102 140.314 0.957999 141.358 0.957999H149.98L147.568 4.09H141.358C140.854 4.09 140.386 4.162 139.954 4.306C139.522 4.45 139.144 4.654 138.82 4.918C138.508 5.182 138.262 5.494 138.082 5.854C137.902 6.202 137.812 6.592 137.812 7.024C137.812 7.456 137.896 7.852 138.064 8.212C138.244 8.56 138.49 8.86 138.802 9.112C139.126 9.364 139.504 9.562 139.936 9.706C140.368 9.838 140.842 9.904 141.358 9.904H145.912V8.158H139.684L141.916 5.476ZM155.541 13H151.815V0.957999H155.541V13ZM171.847 9.904L169.453 13H157.861V0.957999H171.811L169.399 4.09H161.605V5.53H171.145L169.003 8.266H161.605V9.904H171.847ZM184.278 5.764C185.754 5.764 186.876 6.04 187.644 6.592C188.412 7.132 188.796 7.954 188.796 9.058C188.796 9.67 188.7 10.222 188.508 10.714C188.316 11.206 188.01 11.62 187.59 11.956C187.17 12.292 186.63 12.55 185.97 12.73C185.322 12.91 184.542 13 183.63 13H172.416L174.81 9.904H183.918C184.362 9.904 184.686 9.838 184.89 9.706C185.094 9.562 185.196 9.334 185.196 9.022C185.196 8.71 185.094 8.488 184.89 8.356C184.686 8.224 184.362 8.158 183.918 8.158H177.366C176.586 8.158 175.914 8.074 175.35 7.906C174.786 7.738 174.318 7.504 173.946 7.204C173.574 6.904 173.298 6.544 173.118 6.124C172.938 5.692 172.848 5.218 172.848 4.702C172.848 4.138 172.944 3.628 173.136 3.172C173.34 2.704 173.646 2.308 174.054 1.984C174.474 1.66 175.008 1.408 175.656 1.228C176.316 1.048 177.102 0.957999 178.014 0.957999H188.472L186.078 4.09H177.726C177.294 4.09 176.97 4.15 176.754 4.27C176.55 4.39 176.448 4.606 176.448 4.918C176.448 5.23 176.55 5.452 176.754 5.584C176.97 5.704 177.294 5.764 177.726 5.764H184.278Z" fill="white" fill-opacity="0.75"/>
</svg>
