<svg width="159" height="14" viewBox="0 0 159 14" fill="none" xmlns="http://www.w3.org/2000/svg">
<path d="M14.12 9.904L11.726 13H0.134V0.957999H14.084L11.672 4.09H3.878V5.53H13.418L11.276 8.266H3.878V9.904H14.12ZM27.5958 13.198C27.3558 13.198 27.1158 13.156 26.8758 13.072C26.6478 13 26.3898 12.826 26.1018 12.55L18.7218 5.926V13H15.3378V3.01C15.3378 2.614 15.3918 2.272 15.4998 1.984C15.6198 1.696 15.7698 1.462 15.9498 1.282C16.1418 1.102 16.3578 0.97 16.5978 0.885999C16.8498 0.802 17.1078 0.76 17.3718 0.76C17.5998 0.76 17.8278 0.802 18.0558 0.885999C18.2958 0.957999 18.5658 1.132 18.8658 1.408L26.2458 8.032V0.957999H29.6478V10.93C29.6478 11.326 29.5878 11.668 29.4678 11.956C29.3598 12.244 29.2098 12.484 29.0178 12.676C28.8378 12.856 28.6218 12.988 28.3698 13.072C28.1178 13.156 27.8598 13.198 27.5958 13.198ZM39.2789 5.476H46.9829V13H38.7209C37.6769 13 36.7109 12.844 35.8229 12.532C34.9349 12.22 34.1669 11.794 33.5189 11.254C32.8829 10.702 32.3789 10.054 32.0069 9.31C31.6469 8.554 31.4669 7.738 31.4669 6.862C31.4669 5.986 31.6469 5.188 32.0069 4.468C32.3789 3.736 32.8829 3.112 33.5189 2.596C34.1669 2.068 34.9349 1.666 35.8229 1.39C36.7109 1.102 37.6769 0.957999 38.7209 0.957999H47.3429L44.9309 4.09H38.7209C38.2169 4.09 37.7489 4.162 37.3169 4.306C36.8849 4.45 36.5069 4.654 36.1829 4.918C35.8709 5.182 35.6249 5.494 35.4449 5.854C35.2649 6.202 35.1749 6.592 35.1749 7.024C35.1749 7.456 35.2589 7.852 35.4269 8.212C35.6069 8.56 35.8529 8.86 36.1649 9.112C36.4889 9.364 36.8669 9.562 37.2989 9.706C37.7309 9.838 38.2049 9.904 38.7209 9.904H43.2749V8.158H37.0469L39.2789 5.476ZM52.9042 13H49.1782V0.957999H52.9042V13ZM67.4278 13.198C67.1878 13.198 66.9478 13.156 66.7078 13.072C66.4798 13 66.2218 12.826 65.9338 12.55L58.5538 5.926V13H55.1698V3.01C55.1698 2.614 55.2238 2.272 55.3318 1.984C55.4518 1.696 55.6018 1.462 55.7818 1.282C55.9738 1.102 56.1898 0.97 56.4298 0.885999C56.6818 0.802 56.9398 0.76 57.2038 0.76C57.4318 0.76 57.6598 0.802 57.8878 0.885999C58.1278 0.957999 58.3978 1.132 58.6978 1.408L66.0778 8.032V0.957999H69.4798V10.93C69.4798 11.326 69.4198 11.668 69.2998 11.956C69.1918 12.244 69.0418 12.484 68.8498 12.676C68.6698 12.856 68.4538 12.988 68.2018 13.072C67.9498 13.156 67.6918 13.198 67.4278 13.198ZM85.663 9.904L83.269 13H71.677V0.957999H85.627L83.215 4.09H75.421V5.53H84.961L82.819 8.266H75.421V9.904H85.663ZM100.921 9.904L98.5268 13H86.9348V0.957999H100.885L98.4728 4.09H90.6788V5.53H100.219L98.0768 8.266H90.6788V9.904H100.921ZM119.275 13H114.289L111.607 9.814H105.883V13H102.157V6.844H112.633C113.209 6.844 113.695 6.724 114.091 6.484C114.487 6.244 114.685 5.914 114.685 5.494C114.685 5.026 114.505 4.678 114.145 4.45C113.785 4.21 113.281 4.09 112.633 4.09H102.157L104.587 0.957999H112.327C113.011 0.957999 113.719 1.024 114.451 1.156C115.183 1.276 115.849 1.498 116.449 1.822C117.049 2.146 117.541 2.584 117.925 3.136C118.321 3.688 118.519 4.396 118.519 5.26C118.519 5.728 118.447 6.172 118.303 6.592C118.159 7.012 117.949 7.39 117.673 7.726C117.409 8.062 117.079 8.35 116.683 8.59C116.299 8.818 115.861 8.98 115.369 9.076C115.573 9.232 115.801 9.43 116.053 9.67C116.305 9.91 116.641 10.24 117.061 10.66L119.275 13ZM124.394 13H120.668V0.957999H124.394V13ZM138.918 13.198C138.678 13.198 138.438 13.156 138.198 13.072C137.97 13 137.712 12.826 137.424 12.55L130.044 5.926V13H126.66V3.01C126.66 2.614 126.714 2.272 126.822 1.984C126.942 1.696 127.092 1.462 127.272 1.282C127.464 1.102 127.68 0.97 127.92 0.885999C128.172 0.802 128.43 0.76 128.694 0.76C128.922 0.76 129.15 0.802 129.378 0.885999C129.618 0.957999 129.888 1.132 130.188 1.408L137.568 8.032V0.957999H140.97V10.93C140.97 11.326 140.91 11.668 140.79 11.956C140.682 12.244 140.532 12.484 140.34 12.676C140.16 12.856 139.944 12.988 139.692 13.072C139.44 13.156 139.182 13.198 138.918 13.198ZM150.601 5.476H158.305V13H150.043C148.999 13 148.033 12.844 147.145 12.532C146.257 12.22 145.489 11.794 144.841 11.254C144.205 10.702 143.701 10.054 143.329 9.31C142.969 8.554 142.789 7.738 142.789 6.862C142.789 5.986 142.969 5.188 143.329 4.468C143.701 3.736 144.205 3.112 144.841 2.596C145.489 2.068 146.257 1.666 147.145 1.39C148.033 1.102 148.999 0.957999 150.043 0.957999H158.665L156.253 4.09H150.043C149.539 4.09 149.071 4.162 148.639 4.306C148.207 4.45 147.829 4.654 147.505 4.918C147.193 5.182 146.947 5.494 146.767 5.854C146.587 6.202 146.497 6.592 146.497 7.024C146.497 7.456 146.581 7.852 146.749 8.212C146.929 8.56 147.175 8.86 147.487 9.112C147.811 9.364 148.189 9.562 148.621 9.706C149.053 9.838 149.527 9.904 150.043 9.904H154.597V8.158H148.369L150.601 5.476Z" fill="white" fill-opacity="0.75"/>
</svg>
