<svg width="92" height="14" viewBox="0 0 92 14" fill="none" xmlns="http://www.w3.org/2000/svg">
<path d="M16.028 5.476C16.028 6.148 15.896 6.76 15.632 7.312C15.368 7.852 14.978 8.314 14.462 8.698C13.958 9.082 13.34 9.382 12.608 9.598C11.876 9.814 11.042 9.922 10.106 9.922H3.806V13H0.0980001V6.844H10.466C11.042 6.844 11.486 6.718 11.798 6.466C12.122 6.214 12.284 5.878 12.284 5.458C12.284 5.038 12.122 4.708 11.798 4.468C11.486 4.216 11.042 4.09 10.466 4.09H0.0980001L2.564 0.957999H10.124C11.06 0.957999 11.894 1.072 12.626 1.3C13.358 1.516 13.976 1.822 14.48 2.218C14.984 2.614 15.368 3.088 15.632 3.64C15.896 4.192 16.028 4.804 16.028 5.476ZM26.3471 0.76C29.2751 0.76 31.4711 1.258 32.9351 2.254C34.4111 3.25 35.1491 4.822 35.1491 6.97C35.1491 9.13 34.4171 10.708 32.9531 11.704C31.4891 12.7 29.2871 13.198 26.3471 13.198C23.3951 13.198 21.1871 12.7 19.7231 11.704C18.2711 10.708 17.5451 9.13 17.5451 6.97C17.5451 4.822 18.2771 3.25 19.7411 2.254C21.2051 1.258 23.4071 0.76 26.3471 0.76ZM26.3471 10.066C27.2831 10.066 28.0751 10.03 28.7231 9.958C29.3711 9.874 29.8931 9.718 30.2891 9.49C30.6971 9.262 30.9911 8.95 31.1711 8.554C31.3511 8.146 31.4411 7.618 31.4411 6.97C31.4411 6.322 31.3511 5.8 31.1711 5.404C30.9911 4.996 30.6971 4.684 30.2891 4.468C29.8931 4.24 29.3711 4.09 28.7231 4.018C28.0751 3.934 27.2831 3.892 26.3471 3.892C25.4111 3.892 24.6191 3.934 23.9711 4.018C23.3231 4.09 22.7951 4.24 22.3871 4.468C21.9911 4.684 21.7031 4.996 21.5231 5.404C21.3431 5.8 21.2531 6.322 21.2531 6.97C21.2531 7.618 21.3431 8.146 21.5231 8.554C21.7031 8.95 21.9911 9.262 22.3871 9.49C22.7951 9.718 23.3231 9.874 23.9711 9.958C24.6191 10.03 25.4111 10.066 26.3471 10.066ZM48.3878 8.518C48.1238 8.05 47.8958 7.642 47.7038 7.294C47.5118 6.934 47.3378 6.616 47.1818 6.34C47.0258 6.052 46.8878 5.794 46.7678 5.566C46.6598 5.338 46.5518 5.116 46.4438 4.9C46.3478 5.116 46.2398 5.338 46.1198 5.566C46.0118 5.794 45.8798 6.052 45.7238 6.34C45.5798 6.616 45.4118 6.928 45.2198 7.276C45.0278 7.624 44.7998 8.032 44.5358 8.5L42.6098 11.92C42.3938 12.304 42.1178 12.616 41.7818 12.856C41.4578 13.084 41.0498 13.198 40.5578 13.198C40.0898 13.198 39.6638 13.066 39.2798 12.802C38.9078 12.526 38.6378 12.106 38.4698 11.542L35.4098 0.957999H39.1358L40.2698 5.152C40.4618 5.836 40.6178 6.436 40.7378 6.952C40.8698 7.468 40.9838 7.972 41.0798 8.464C41.2718 8.044 41.4938 7.582 41.7458 7.078C42.0098 6.562 42.3518 5.914 42.7718 5.134L44.3918 2.11C44.5478 1.81 44.7038 1.576 44.8598 1.408C45.0158 1.228 45.1778 1.09 45.3458 0.993999C45.5258 0.898 45.7118 0.838 45.9038 0.813999C46.0958 0.778 46.2998 0.76 46.5158 0.76C46.7438 0.76 46.9538 0.778 47.1458 0.813999C47.3378 0.838 47.5178 0.898 47.6858 0.993999C47.8658 1.09 48.0338 1.228 48.1898 1.408C48.3578 1.576 48.5198 1.81 48.6758 2.11L50.2778 5.152C50.5058 5.572 50.7038 5.944 50.8718 6.268C51.0398 6.58 51.1898 6.868 51.3218 7.132C51.4538 7.384 51.5678 7.618 51.6638 7.834C51.7718 8.05 51.8738 8.26 51.9698 8.464C52.0658 7.984 52.1798 7.48 52.3118 6.952C52.4558 6.424 52.6178 5.824 52.7978 5.152L53.9318 0.957999H57.5678L54.4538 11.542C54.2858 12.106 54.0098 12.526 53.6258 12.802C53.2538 13.066 52.8338 13.198 52.3658 13.198C51.8858 13.198 51.4778 13.084 51.1418 12.856C50.8178 12.628 50.5418 12.316 50.3138 11.92L48.3878 8.518ZM72.9716 9.904L70.5776 13H58.9856V0.957999H72.9356L70.5236 4.09H62.7296V5.53H72.2696L70.1276 8.266H62.7296V9.904H72.9716ZM91.3254 13H86.3394L83.6574 9.814H77.9334V13H74.2074V6.844H84.6834C85.2594 6.844 85.7454 6.724 86.1414 6.484C86.5374 6.244 86.7354 5.914 86.7354 5.494C86.7354 5.026 86.5554 4.678 86.1954 4.45C85.8354 4.21 85.3314 4.09 84.6834 4.09H74.2074L76.6374 0.957999H84.3774C85.0614 0.957999 85.7694 1.024 86.5014 1.156C87.2334 1.276 87.8994 1.498 88.4994 1.822C89.0994 2.146 89.5914 2.584 89.9754 3.136C90.3714 3.688 90.5694 4.396 90.5694 5.26C90.5694 5.728 90.4974 6.172 90.3534 6.592C90.2094 7.012 89.9994 7.39 89.7234 7.726C89.4594 8.062 89.1294 8.35 88.7334 8.59C88.3494 8.818 87.9114 8.98 87.4194 9.076C87.6234 9.232 87.8514 9.43 88.1034 9.67C88.3554 9.91 88.6914 10.24 89.1114 10.66L91.3254 13Z" fill="white" fill-opacity="0.75"/>
</svg>
